HIERARCHY
ROOT Hips
{
	OFFSET -3.958830 18.904000 13.208200
	CHANNELS 6 Xposition Yposition Zposition Zrotation Yrotation Xrotation 
	JOINT LHipJoint
	{
		OFFSET 0.000000 0.000000 0.000000
		CHANNELS 3 Zrotation Yrotation Xrotation
		JOINT LeftUpLeg
		{
			OFFSET 1.800000 -1.400000 0.085000
			CHANNELS 3 Zrotation Yrotation Xrotation
			JOINT LeftLeg
			{
				OFFSET 2.215000 -6.000000 0.000000
				CHANNELS 3 Zrotation Yrotation Xrotation
				JOINT LeftFoot
				{
					OFFSET 2.500000 -6.900000 0.000000
					CHANNELS 3 Zrotation Yrotation Xrotation
					JOINT LeftToeBase
					{
						OFFSET 0.200000 -0.500000 1.950000
						CHANNELS 3 Zrotation Yrotation Xrotation
						End Site
						{
							OFFSET 0.000000 0.000000 0.000000
						}
					}
				}
			}
		}
	}
	JOINT RHipJoint
	{
		OFFSET 0.000000 0.000000 0.000000
		CHANNELS 3 Zrotation Yrotation Xrotation
		JOINT RightUpLeg
		{
			OFFSET -1.800000 -1.400000 0.085000
			CHANNELS 3 Zrotation Yrotation Xrotation
			JOINT RightLeg
			{
				OFFSET -2.215000 -6.000000 0.000000
				CHANNELS 3 Zrotation Yrotation Xrotation
				JOINT RightFoot
				{
					OFFSET -2.500000 -6.900000 0.000000
					CHANNELS 3 Zrotation Yrotation Xrotation
					JOINT RightToeBase
					{
						OFFSET -0.200000 -0.500000 1.950000
						CHANNELS 3 Zrotation Yrotation Xrotation
						End Site
						{
							OFFSET 0.000000 0.000000 0.000000
						}
					}
				}
			}
		}
	}
	JOINT LowerBack
	{
		OFFSET 0.000000 0.000000 0.000000
		CHANNELS 3 Zrotation Yrotation Xrotation
		JOINT Spine
		{
			OFFSET -0.087000 1.940000 -0.288900
			CHANNELS 3 Zrotation Yrotation Xrotation
			JOINT Spine1
			{
				OFFSET 0.000000 1.950000 0.060000
				CHANNELS 3 Zrotation Yrotation Xrotation
				JOINT Neck
				{
					OFFSET 0.000000 0.000000 0.000000
					CHANNELS 3 Zrotation Yrotation Xrotation
					JOINT Neck1
					{
						OFFSET 0.000000 1.600000 0.340000
						CHANNELS 3 Zrotation Yrotation Xrotation
						JOINT Head
						{
							OFFSET 0.000000 1.667000 -0.240000
							CHANNELS 3 Zrotation Yrotation Xrotation
							End Site
							{
								OFFSET 0.000000 0.000000 0.000000
							}
						}
					}
				}
				JOINT LeftShoulder
				{
					OFFSET 0.000000 0.000000 0.000000
					CHANNELS 3 Zrotation Yrotation Xrotation
					JOINT LeftArm
					{
						OFFSET 2.700000 1.550000 -0.730000
						CHANNELS 3 Zrotation Yrotation Xrotation
						JOINT LeftForeArm
						{
							OFFSET 5.450000 0.000000 0.000000
							CHANNELS 3 Zrotation Yrotation Xrotation
							JOINT LeftHand
							{
								OFFSET 3.450000 0.000000 0.000000
								CHANNELS 3 Zrotation Yrotation Xrotation
								JOINT LeftHandIndex1
								{
									OFFSET 0.750000 0.000000 0.000000
									CHANNELS 3 Zrotation Yrotation Xrotation
									End Site
									{
										OFFSET 0.000000 0.000000 0.000000
									}
								}
							}
						}
					}
				}
				JOINT RightShoulder
				{
					OFFSET 0.000000 0.000000 0.000000
					CHANNELS 3 Zrotation Yrotation Xrotation
					JOINT RightArm
					{
						OFFSET -2.700000 1.550000 -0.730000
						CHANNELS 3 Zrotation Yrotation Xrotation
						JOINT RightForeArm
						{
							OFFSET -5.450000 0.000000 0.000000
							CHANNELS 3 Zrotation Yrotation Xrotation
							JOINT RightHand
							{
								OFFSET -3.450000 0.000000 0.000000
								CHANNELS 3 Zrotation Yrotation Xrotation
								JOINT RightHandIndex1
								{
									OFFSET -0.750000 0.000000 0.000000
									CHANNELS 3 Zrotation Yrotation Xrotation
									End Site
									{
										OFFSET 0.000000 0.000000 0.000000
									}
								}
							}
						}
					}
				}
			}
		}
	}
}
MOTION
Frames: 8
Frame Time: 0.016667
-1.353900 18.363900 1.228570 -6.393634 -17.008615 2.194316 -14.210807 11.086315 2.463892 9.766203 0.510372 -23.862836 -3.786565 3.195024 2.976831 -1.400693 3.752383 3.633581 -0.393440 -0.489640 -1.249650 19.345737 -12.667161 2.695636 -4.442554 1.458534 -5.047703 5.342463 -5.896925 15.424552 -0.037000 -5.369506 2.765975 0.135830 1.975760 0.342470 -6.682269 4.844651 -6.918826 23.242641 2.860050 14.304859 -36.556380 10.713588 24.915863 12.046830 -12.105442 -9.276900 -20.699002 11.906712 26.126123 10.567440 -6.622320 -1.397110 5.472888 -9.137351 10.093509 -59.239382 -32.159412 21.121861 154.113562 -37.464802 -143.639908 -4.790154 3.249774 0.129300 0.972710 -0.939640 0.434240 -28.606134 14.126332 -9.469055 -1.305589 34.400202 -0.565186 -24.260372 19.453403 -6.325306 1.685262 -1.799362 -0.740600 1.007770 1.023800 0.403020 
-1.343270 18.393420 1.228960 -5.757862 -17.742666 2.948591 -14.259257 11.069028 2.492829 9.031860 0.175396 -22.825316 -3.664823 2.870694 1.174321 -1.343805 3.649972 3.717359 -0.322410 -0.395260 -1.199420 19.313031 -12.576640 2.678562 -4.744979 1.093230 -5.050788 4.803195 -5.555470 13.191793 -0.064178 -5.219427 2.830500 0.165150 1.941620 0.341550 -6.580178 4.661149 -6.896199 22.577892 3.534408 13.157023 -35.555810 11.320202 25.001410 12.047813 -11.766867 -9.148096 -19.980721 10.721062 26.725785 9.688750 -6.785290 -1.382280 6.243091 -9.760023 10.596317 -56.406825 -33.325753 22.403702 152.387119 -34.121630 -135.217681 -4.730115 3.247887 0.102670 0.958670 -0.908250 0.488560 -29.469920 14.615933 -10.730485 -3.972413 35.202994 -0.073292 -20.709404 18.520969 -5.118414 1.680955 -1.855097 -0.699540 0.997400 0.941450 0.414440 
-1.323410 18.385890 1.235100 -5.471011 -18.349602 4.098728 -14.323366 11.074871 2.612332 8.957209 -0.204278 -22.748944 -4.164964 2.742525 0.000954 -1.317780 3.671205 3.695391 -0.290180 -0.371260 -1.157820 19.260007 -12.393585 2.654506 -4.810851 1.005242 -5.577681 4.472853 -5.287033 11.555004 -0.054634 -5.051885 2.876464 0.165320 1.892730 0.364300 -6.407818 4.261252 -6.890342 22.247335 3.971112 11.529273 -34.252115 11.662561 24.284650 11.275084 -10.996115 -9.148883 -19.093982 9.995152 28.651384 9.414270 -6.862580 -1.162400 7.897218 -9.892995 11.305872 -53.613772 -34.638628 23.705070 149.300611 -30.375593 -122.635509 -4.691150 3.226421 0.109150 0.945770 -0.880400 0.489080 -29.877654 14.330132 -11.329822 -5.441966 36.933701 0.195480 -19.681132 19.921569 -4.905319 1.652097 -1.880451 -0.671810 0.946830 0.910950 0.400050 
-1.306150 18.375040 1.226950 -5.379505 -18.981444 4.284590 -14.373561 11.109218 2.676328 9.223529 -0.351561 -22.199102 -4.546067 2.707293 -0.878777 -1.321801 3.735913 3.681336 -0.276260 -0.363770 -1.088540 19.215686 -12.269202 2.633409 -4.820037 0.858940 -5.477983 4.067945 -5.120475 10.711411 -0.074977 -4.945851 2.891692 0.174060 1.838890 0.331530 -6.280008 3.924969 -6.907579 22.053746 3.927472 11.122927 -32.474568 11.791968 24.549246 10.587713 -10.304661 -9.401684 -18.213217 9.242155 29.961825 8.605010 -6.535490 -1.575700 10.531665 -10.555770 11.590315 -49.361755 -36.724665 22.804648 145.142425 -27.207981 -109.323085 -4.652683 3.097429 0.148980 0.909760 -0.848550 0.473730 -31.173567 14.477124 -11.391969 -5.960792 36.723745 -0.208335 -20.749081 20.869821 -5.264544 1.666592 -1.877040 -0.698020 0.965790 0.886280 0.359610 
-1.287230 18.361350 1.217310 -5.371528 -19.094302 4.222246 -14.411108 11.177025 2.746982 9.490495 -0.496205 -22.031329 -4.940435 2.759757 -1.220138 -1.361869 3.847608 3.653062 -0.326120 -0.438150 -1.062320 19.173543 -12.182427 2.587853 -4.808027 0.841080 -5.643937 3.818485 -5.142138 11.197567 -0.050250 -4.882781 2.917220 0.149400 1.846520 0.299320 -6.161270 3.580324 -6.935471 21.994974 3.312650 11.015770 -31.047074 11.290786 24.605714 9.801958 -9.796266 -9.608540 -17.629515 8.869563 31.198409 8.028220 -6.371410 -1.748710 13.770675 -11.674451 11.793430 -44.196439 -37.470388 19.310877 140.390096 -25.351605 -97.884411 -4.695007 2.898785 0.194920 0.913500 -0.853890 0.432410 -32.783066 15.142900 -11.442877 -5.878962 36.910258 -0.040694 -21.053891 19.763773 -5.116687 1.674689 -1.780542 -0.760260 1.017630 0.919460 0.318900 
-1.260100 18.353680 1.184560 -5.461503 -19.270015 2.973744 -14.414802 11.212526 2.717848 9.947971 -0.465402 -21.009276 -5.271655 2.862685 -1.024257 -1.396051 3.956867 3.634353 -0.297420 -0.412590 -1.007580 19.155947 -12.244638 2.551754 -5.201102 0.870796 -5.345960 4.117201 -5.428515 12.793982 -0.080549 -5.021183 2.865457 0.181940 1.840890 0.307020 -6.154647 3.576364 -6.982029 22.385483 2.056303 12.353454 -30.198024 10.239902 25.577297 9.849502 -9.982130 -9.305680 -17.418167 8.368993 30.535631 6.014490 -6.018140 -2.538120 17.827205 -13.197376 11.354212 -36.884549 -37.795203 13.167380 134.057754 -23.655932 -85.224205 -4.735513 2.772209 0.211380 0.931900 -0.838300 0.440390 -36.536908 16.288519 -12.902140 -4.240280 36.682152 0.939603 -20.641405 15.998718 -4.606129 1.705572 -1.764520 -0.781960 1.046910 0.898210 0.295720 
-1.234300 18.338340 1.147590 -5.692233 -19.383613 2.191289 -14.411667 11.319463 2.725817 10.395196 -0.495261 -21.068042 -5.444075 3.021068 -0.005066 -1.317229 3.870597 3.638957 -0.199090 -0.228790 -0.948500 19.131789 -12.271998 2.505398 -5.515427 1.187219 -6.159223 4.769707 -5.783211 15.604577 -0.143025 -5.092680 2.818799 0.239170 1.767750 0.316880 -6.121071 3.389419 -6.990948 22.682585 0.559557 13.419338 -29.142083 8.660821 25.372059 8.853229 -10.197821 -8.924265 -17.835935 8.680644 30.501845 5.613590 -5.436670 -4.174220 21.575051 -14.739943 10.928634 -29.670797 -36.768728 6.055599 124.980210 -23.019883 -71.380583 -4.701639 2.752140 0.174040 0.897550 -0.748720 0.474690 -38.340145 17.493904 -13.519523 -5.129654 37.363557 0.734877 -21.470624 14.900185 -4.670134 1.774248 -1.790544 -0.687310 1.032440 0.803410 0.336430 
-1.206550 18.339780 1.105360 -6.351307 -20.121940 0.774613 -14.352070 11.297137 2.600980 11.382573 -0.306742 -20.100355 -5.391170 3.210888 1.255907 -1.120524 3.725685 3.660830 -0.020640 0.095930 -0.844580 19.171228 -12.502940 2.488318 -5.496525 1.401221 -6.704564 4.715272 -6.059049 18.928969 -0.256103 -5.278581 2.733818 0.337280 1.667940 0.355450 -6.316172 3.829388 -7.040447 24.027249 -0.525486 15.384812 -28.311385 7.680398 26.219442 7.776202 -9.898803 -8.336824 -16.562719 7.799632 29.625015 5.115930 -5.248790 -6.028240 27.123678 -15.969299 9.029198 -21.518226 -36.784706 -0.903253 110.797323 -22.805083 -55.522975 -4.634172 2.903838 0.033880 0.865250 -0.618790 0.552540 -41.536598 18.117711 -14.464417 -2.623411 35.542430 1.141994 -24.731833 15.829025 -5.804412 1.939948 -1.929964 -0.489010 0.977800 0.619410 0.441810 
